<svg height="512" viewBox="0 0 128 128" width="512" xmlns="http://www.w3.org/2000/svg"><g><circle cx="64" cy="64" fill="#fff5eb" r="49.127" transform="matrix(.125 -.992 .992 .125 -7.485 119.515)"/><path d="m75.381 55.124-50.12 39.088a49.144 49.144 0 0 0 53.953 16.51 168.079 168.079 0 0 0 -3.833-55.598z" fill="#84dfff"/><path d="m110.753 79.094a49.075 49.075 0 0 0 -8.014-45.306l-27.358 21.336a185.776 185.776 0 0 1 35.372 23.97z" fill="#ff7591"/><path d="" fill="#fff" stroke="#000" stroke-linecap="round" stroke-linejoin="round" stroke-width="3.5"/><path d="m60.751 14.979a49.191 49.191 0 0 0 -38.359 22.883 168.069 168.069 0 0 1 52.989 17.262 185.775 185.775 0 0 0 -14.63-40.145z" fill="#ffbe74"/><ellipse cx="75.824" cy="55.538" fill="#938ed9" rx="9.261" ry="10.137" transform="matrix(.691 -.723 .723 .691 -16.714 71.982)"/></g><path d="m112.719 57.386a1.752 1.752 0 0 1 1.914 1.568l.038.4a1.75 1.75 0 0 1 -3.486.318l-.035-.37a1.749 1.749 0 0 1 1.569-1.916zm-48.663 57.47a50.847 50.847 0 1 1 49.579-62.083 1.75 1.75 0 0 1 -3.414.77 46.857 46.857 0 0 0 -7.823-17.27l-17.198 13.416a11.693 11.693 0 0 1 1.641 9.886 190.584 190.584 0 0 1 22.98 16.447 47.479 47.479 0 0 0 1.5-9.61 1.786 1.786 0 0 1 1.838-1.658 1.751 1.751 0 0 1 1.658 1.838 50.853 50.853 0 0 1 -50.761 48.264zm-.548-98.2a189.97 189.97 0 0 1 11.145 28.918 1.746 1.746 0 0 1 -1.317 2.193 6.817 6.817 0 0 0 -5.467 6.292c-.556 7.08 8.157 12.245 13.48 7.779 3.223-2.7 3.23-7.695.256-11.109a9.176 9.176 0 0 0 -3.071-2.321 1.75 1.75 0 0 1 1.473-3.174 12.591 12.591 0 0 1 2.847 1.843l17.394-13.565a47.325 47.325 0 0 0 -36.74-16.859zm14.062 92.723a164.729 164.729 0 0 0 -1.615-42.451 12.408 12.408 0 0 1 -8.045-3.759l-3.918 3.057a1.75 1.75 0 0 1 -2.153-2.76l3.989-3.111a11.592 11.592 0 0 1 -1.141-8.393 166.2 166.2 0 0 0 -35.9-11.25 1.75 1.75 0 1 1 .654-3.438 169.71 169.71 0 0 1 36.652 11.484 10.064 10.064 0 0 1 4.7-3.838 187.081 187.081 0 0 0 -11.082-28.077 47.33 47.33 0 0 0 -34.111 74.885l25.927-20.219a1.75 1.75 0 0 1 2.152 2.76l-25.927 20.219a47.449 47.449 0 0 0 49.818 14.891zm31.13-29.723a187.59 187.59 0 0 0 -23.43-16.937 10.223 10.223 0 0 1 -5.819 3.913 168.359 168.359 0 0 1 1.733 41.514 47.282 47.282 0 0 0 27.516-28.49zm-51.474-12.592-.393.306a1.75 1.75 0 1 0 2.152 2.76l.393-.307a1.75 1.75 0 1 0 -2.152-2.759z" fill="#231403"/></svg>