<svg id="Capa_1" enable-background="new 0 0 512 512" height="512" viewBox="0 0 512 512" width="512" xmlns="http://www.w3.org/2000/svg"><g><path d="m271.531 7.502 77.656 46.593-77.656 46.716z" fill="#fee45a"/><path d="m240.469 7.502h31.062v124.371h-31.062z" fill="#fe646f"/><path d="m209.407 162.936v-31.063h93.186v31.063h-31.062v31.062h-31.062v-31.062z" fill="#d77f4a"/><path d="m69.626 225.06 31.063 30.94h310.622l31.063-30.94v-31.062h-15.532v-31.062h-62.124v31.062h-31.062v-31.062h-62.125v31.062h-31.062v-31.062h-62.125v30.939h-31.062v-30.939h-62.124v30.939h-15.532z" fill="#e8ad8c"/><g fill="#e19974"><path d="m89.63 225.06 31.06 30.94h-20l-31.06-30.94v-31.18h15.53v-30.94h20v30.94h-15.53z"/><path d="m178.34 162.94h20v30.94h-20z"/><path d="m271.53 162.94h20v31.06h-20z"/><path d="m364.72 162.94h20v31.06h-20z"/><path d="m473.436 473.436h-434.872l62.125-217.436h310.622z"/></g><path d="m120.69 256-62.13 217.44h-20l62.13-217.44z" fill="#d77f4a"/><path d="m318.125 442.374h-124.25v-93.065c0-34.31 27.814-62.124 62.124-62.124 34.31 0 62.124 27.814 62.124 62.124v93.065z" fill="#e19974"/><path d="m271 289.01c-27.06 6.7-47.12 31.16-47.12 60.3v93.06h-30v-93.06c0-34.31 27.81-62.13 62.12-62.13 5.17 0 10.2.63 15 1.83z" fill="#d77f4a"/><path d="m162.813 380.249h-31.062v-77.656c0-8.578 6.954-15.531 15.531-15.531 8.578 0 15.531 6.954 15.531 15.531z" fill="#d77f4a"/><path d="m380.249 380.249h-31.062v-77.656c0-8.578 6.954-15.531 15.531-15.531 8.578 0 15.531 6.954 15.531 15.531z" fill="#d77f4a"/><path d="m504.498 504.498h-496.996c0-18.256 12.424-34.169 30.134-38.597l94.113-23.533c81.578-20.398 166.923-20.398 248.5 0l94.113 23.533c17.712 4.428 30.136 20.341 30.136 38.597z" fill="#e8ad8c"/><path d="m281 427.68c-33.36 1.63-66.61 6.53-99.25 14.69l-94.11 23.53c-8.86 2.22-16.39 7.3-21.71 14.11-5.32 6.82-8.43 15.36-8.43 24.49h-50c0-9.13 3.11-17.67 8.43-24.49 5.32-6.81 12.85-11.89 21.71-14.11l94.11-23.53c48.94-12.24 99.23-17.13 149.25-14.69z" fill="#e19974"/><g><path d="m131.751 387.749h31.063c4.143 0 7.5-3.357 7.5-7.5v-77.655c0-12.699-10.332-23.031-23.031-23.031s-23.031 10.332-23.031 23.031v77.655c-.001 4.143 3.356 7.5 7.499 7.5zm7.5-85.155c0-4.429 3.603-8.031 8.031-8.031s8.031 3.603 8.031 8.031v70.155h-16.063v-70.155z"/><path d="m349.187 387.749h31.063c4.143 0 7.5-3.357 7.5-7.5v-77.655c0-12.699-10.332-23.031-23.031-23.031s-23.031 10.332-23.031 23.031v77.655c-.001 4.143 3.356 7.5 7.499 7.5zm7.5-85.155c0-4.429 3.603-8.031 8.031-8.031s8.031 3.603 8.031 8.031v70.155h-16.063v-70.155z"/><path d="m477.078 458.869-57.342-200.677 27.927-27.819c1.413-1.407 2.207-3.319 2.207-5.313v-31.06c0-4.143-3.357-7.5-7.5-7.5h-8.03v-23.56c0-4.143-3.357-7.5-7.5-7.5h-62.12c-4.143 0-7.5 3.357-7.5 7.5v23.56h-16.06v-23.56c0-4.143-3.357-7.5-7.5-7.5h-23.566v-23.567c0-4.143-3.357-7.5-7.5-7.5h-23.564v-19.321l74.022-44.53c4.848-4.289 4.845-8.575-.008-12.858l-77.654-46.594c-1.147-.689-2.521-1.07-3.86-1.07h-31.06c-4.143 0-7.5 3.357-7.5 7.5v30.31c0 4.143 3.357 7.5 7.5 7.5s7.5-3.357 7.5-7.5v-22.81h16.061v109.37h-16.061v-53.87c0-4.143-3.357-7.5-7.5-7.5s-7.5 3.357-7.5 7.5v53.873h-23.563c-4.143 0-7.5 3.357-7.5 7.5v23.567h-23.567c-4.143 0-7.5 3.357-7.5 7.5v23.439h-16.06v-23.439c0-4.143-3.357-7.5-7.5-7.5h-62.12c-4.143 0-7.5 3.357-7.5 7.5v23.439h-8.03c-4.143 0-7.5 3.357-7.5 7.5v31.18c0 1.994.794 3.906 2.207 5.313l27.927 27.819-57.342 200.678c-20.363 5.535-34.922 24.498-34.922 45.631 0 4.143 3.357 7.5 7.5 7.5h497c4.143 0 7.5-3.357 7.5-7.5 0-21.424-14.315-40.05-34.922-45.631zm-198.047-438.121 55.592 33.356-55.592 33.441zm-62.125 118.625h78.188v16.067h-23.564c-4.143 0-7.5 3.357-7.5 7.5v23.56h-16.06v-23.56c0-4.143-3.357-7.5-7.5-7.5h-23.563v-16.067zm-201.036 357.627c3.184-12.062 11.047-20.003 23.589-23.823l60.561-15.141c4.019-1.005 6.461-5.077 5.457-9.096-1.005-4.02-5.079-6.458-9.096-5.457l-44.653 11.164 54.619-191.147h179.903c4.143 0 7.5-3.357 7.5-7.5s-3.357-7.5-7.5-7.5h-182.462l-26.658-26.556v-20.564h8.03c4.143 0 7.5-3.357 7.5-7.5v-23.44h47.12v23.439c0 4.143 3.357 7.5 7.5 7.5h31.06c4.143 0 7.5-3.357 7.5-7.5v-23.439h47.13v23.56c0 4.143 3.357 7.5 7.5 7.5h31.061c4.143 0 7.5-3.357 7.5-7.5v-23.56h47.13v23.56c0 4.143 3.357 7.5 7.5 7.5h31.06c4.143 0 7.5-3.357 7.5-7.5v-23.56h47.12v23.56c0 4.143 3.357 7.5 7.5 7.5h8.03v20.444l-26.659 26.556h-89.272c-4.143 0-7.5 3.357-7.5 7.5s3.357 7.5 7.5 7.5h86.712l54.619 191.146c-44.502-11.127-89.115-24.229-134.651-30.354v-74.982c0-37.634-31.896-69.63-69.62-69.63-38.389 0-69.62 31.236-69.62 69.63v74.983c-19.624 2.64-39.095 6.396-58.289 11.261-4.019 1.005-6.461 5.077-5.457 9.096 1.006 4.019 5.083 6.462 9.096 5.457 80.805-20.004 165.835-20.682 246.701-.46l94.109 23.529c11.906 2.979 20.844 12.298 23.584 23.824zm294.75-74.508c-36.289-3.813-72.952-3.813-109.24 0v-73.182c0-30.123 24.503-54.63 54.62-54.63 29.805 0 54.62 24.83 54.62 54.63z"/></g><path d="m256 465.527c-4.142 0-7.5-3.358-7.5-7.5 0-4.142 3.358-7.5 7.5-7.5 4.142 0 7.5 3.358 7.5 7.5 0 4.142-3.358 7.5-7.5 7.5z"/><path d="m178.344 467.375c-4.142 0-7.5-3.358-7.5-7.5 0-4.142 3.358-7.5 7.5-7.5 4.142 0 7.5 3.358 7.5 7.5 0 4.143-3.357 7.5-7.5 7.5z"/><path d="m294.562 480.936c-4.142 0-7.5-3.358-7.5-7.5 0-4.142 3.358-7.5 7.5-7.5 4.142 0 7.5 3.358 7.5 7.5 0 4.142-3.358 7.5-7.5 7.5z"/><path d="m333.656 467.375c-4.142 0-7.5-3.358-7.5-7.5 0-4.142 3.358-7.5 7.5-7.5 4.142 0 7.5 3.358 7.5 7.5 0 4.143-3.358 7.5-7.5 7.5z"/><path d="m217.438 480.936c-4.142 0-7.5-3.358-7.5-7.5 0-4.142 3.358-7.5 7.5-7.5 4.142 0 7.5 3.358 7.5 7.5 0 4.142-3.358 7.5-7.5 7.5z"/></g></svg>